<svg id="图层_1" data-name="图层 1" xmlns="http://www.w3.org/2000/svg" xmlns:xlink="http://www.w3.org/1999/xlink" viewBox="0 0 64 64"><defs><style>.cls-1{fill:url(#未命名的渐变_8);}.cls-2{fill:aqua;}</style><linearGradient id="未命名的渐变_8" x1="32" y1="55.43" x2="32" y2="2.12" gradientUnits="userSpaceOnUse"><stop offset="0" stop-color="aqua"/><stop offset="1" stop-color="aqua" stop-opacity="0.1"/></linearGradient></defs><title>arrow</title><path class="cls-1" d="M36.83,39.7C40.12,25,41.5,2.13,41.5,2.13,34.75,5.82,32,5.84,32,5.84s-2.75,0-9.5-3.72c0,0,1.38,22.89,4.67,37.58,0,0-5.59-1-16-9.32.28.44,9.5,14.57,20.82,25C43.32,45,52.54,30.83,52.82,30.39,42.42,38.7,36.83,39.7,36.83,39.7Z"/><path class="cls-2" d="M39.53,49.19l-.87,1c13.64.62,22.68,3.06,22.68,5.29,0,2.57-12,5.44-29.33,5.44S2.67,58,2.67,55.43c0-2.23,9-4.67,22.68-5.29l-.87-1C12.42,49.82,1.67,52,1.67,55.43c0,4.18,15.63,6.44,30.33,6.44s30.33-2.26,30.33-6.44C62.33,52,51.58,49.82,39.53,49.19Z"/></svg>